<svg width="55" height="54" viewBox="0 0 55 54" fill="none" xmlns="http://www.w3.org/2000/svg">
<path d="M41.1403 0.0258275C43.0055 0.0222813 44.763 0.367667 46.4126 1.06198C48.0623 1.7563 49.5064 2.70463 50.7449 3.90696C51.9835 5.1093 52.9622 6.51292 53.6809 8.11781C54.3997 9.7227 54.7608 11.4339 54.7643 13.2515L54.8147 39.7547C54.8181 41.5723 54.4636 43.2954 53.7509 44.9242C53.0383 46.5529 52.065 47.9708 50.831 49.1779C49.5971 50.3849 48.1566 51.3387 46.5096 52.0393C44.8625 52.7399 43.1064 53.0919 41.2412 53.0955L13.9785 53.1473C12.1133 53.1509 10.3558 52.8055 8.70617 52.1112C7.05651 51.4169 5.6124 50.4685 4.37386 49.2662C3.13531 48.0639 2.15663 46.6497 1.43781 45.0236C0.718986 43.3976 0.357848 41.6758 0.354392 39.8582L0.304003 13.3551C0.300547 11.5375 0.655156 9.82488 1.36783 8.21727C2.0805 6.60965 3.05382 5.20233 4.28778 3.99529C5.52175 2.78825 6.96224 1.83444 8.60925 1.13386C10.2563 0.433273 12.0124 0.0812071 13.8776 0.0776608L41.1403 0.0258275ZM19.0557 19.9769L12.2237 19.9899L12.2647 41.5475L19.0967 41.5345L19.0557 19.9769ZM15.669 18.2714C16.5799 18.2697 17.371 17.9512 18.0421 17.3159C18.7132 16.6805 19.0479 15.8979 19.0462 14.968C19.0444 14.038 18.7067 13.2567 18.0332 12.6239C17.3596 11.9912 16.5674 11.6756 15.6565 11.6774C14.7022 11.6792 13.8894 11.9977 13.2183 12.6331C12.5471 13.2684 12.2125 14.051 12.2142 14.981C12.216 15.9109 12.5537 16.6922 13.2272 17.325C13.9008 17.9578 14.7147 18.2733 15.669 18.2714ZM42.8871 28.9985C42.8842 27.4768 42.4476 25.9876 41.5773 24.531C40.707 23.0743 39.577 21.9669 38.1875 21.2087C36.9283 20.5347 35.4636 20.1782 33.7935 20.1391C32.1234 20.1 30.6166 20.3777 29.273 20.972L29.2711 19.9575L22.4391 19.9705L22.4801 41.5281L29.312 41.5151L29.287 28.3269L32.0823 26.9901C32.429 26.8204 32.906 26.7349 33.5133 26.7338C34.1205 26.7326 34.5762 26.8374 34.8802 27.0482C35.1407 27.1745 35.4015 27.4488 35.6626 27.871C35.9237 28.2932 36.0545 28.6734 36.0552 29.0115L36.0789 41.5022L42.9108 41.4892L42.8871 28.9985Z" fill="white"/>
</svg>
